<svg width="1200" height="720" viewBox="0 0 1200 720" fill="none" xmlns="http://www.w3.org/2000/svg">
  <defs>
    <linearGradient id="bg" x1="70" y1="34" x2="1115" y2="688" gradientUnits="userSpaceOnUse">
      <stop stop-color="#172033"/>
      <stop offset="1" stop-color="#0B1020"/>
    </linearGradient>
    <linearGradient id="accent" x1="830" y1="86" x2="1051" y2="631" gradientUnits="userSpaceOnUse">
      <stop stop-color="#F59E70"/>
      <stop offset="1" stop-color="#D95D37"/>
    </linearGradient>
    <filter id="shadow" x="-20%" y="-20%" width="140%" height="140%">
      <feDropShadow dx="0" dy="20" stdDeviation="24" flood-color="#000" flood-opacity=".28"/>
    </filter>
  </defs>
  <rect width="1200" height="720" rx="36" fill="url(#bg)"/>
  <circle cx="1090" cy="-20" r="250" fill="#D95D37" fill-opacity=".12"/>
  <circle cx="70" cy="720" r="260" fill="#6C7CF5" fill-opacity=".10"/>
  <rect x="78" y="70" width="1044" height="580" rx="24" fill="#0D1424" stroke="#344158" stroke-width="2" filter="url(#shadow)"/>
  <rect x="78" y="70" width="1044" height="64" rx="24" fill="#151E32"/>
  <circle cx="112" cy="102" r="7" fill="#F17054"/>
  <circle cx="137" cy="102" r="7" fill="#E6B75B"/>
  <circle cx="162" cy="102" r="7" fill="#5DC39B"/>
  <text x="207" y="109" fill="#DCE6F5" font-family="Arial, sans-serif" font-size="20" font-weight="700">Central de Tickets</text>
  <rect x="102" y="164" width="196" height="458" rx="16" fill="#121B2E"/>
  <text x="128" y="207" fill="#93A4C1" font-family="Arial, sans-serif" font-size="13" font-weight="700" letter-spacing="1.5">WORKSPACE</text>
  <rect x="122" y="236" width="156" height="42" rx="10" fill="#253451"/>
  <circle cx="145" cy="257" r="7" fill="#F08A65"/>
  <text x="164" y="262" fill="#F7FAFF" font-family="Arial, sans-serif" font-size="14" font-weight="600">Tickets</text>
  <circle cx="145" cy="313" r="7" fill="#7285A6"/>
  <text x="164" y="318" fill="#A7B5CA" font-family="Arial, sans-serif" font-size="14">Evidências</text>
  <circle cx="145" cy="369" r="7" fill="#7285A6"/>
  <text x="164" y="374" fill="#A7B5CA" font-family="Arial, sans-serif" font-size="14">Worktrees</text>
  <circle cx="145" cy="425" r="7" fill="#7285A6"/>
  <text x="164" y="430" fill="#A7B5CA" font-family="Arial, sans-serif" font-size="14">Revisões</text>
  <rect x="330" y="164" width="760" height="116" rx="16" fill="#17243A"/>
  <text x="362" y="205" fill="#8FA2C1" font-family="Arial, sans-serif" font-size="14" font-weight="700" letter-spacing="1.5">DEVELOPMENT CONTROL</text>
  <text x="362" y="247" fill="#F7FAFF" font-family="Arial, sans-serif" font-size="27" font-weight="700">A safer path from ticket to delivery</text>
  <rect x="362" y="265" width="214" height="4" rx="2" fill="url(#accent)"/>
  <rect x="330" y="308" width="238" height="138" rx="16" fill="#162238" stroke="#2D3C56"/>
  <text x="358" y="344" fill="#A8B8D2" font-family="Arial, sans-serif" font-size="13" font-weight="700">TICKETS</text>
  <text x="358" y="392" fill="#F7FAFF" font-family="Arial, sans-serif" font-size="36" font-weight="700">24</text>
  <text x="431" y="392" fill="#66D1A1" font-family="Arial, sans-serif" font-size="13">em fluxo</text>
  <rect x="596" y="308" width="238" height="138" rx="16" fill="#162238" stroke="#2D3C56"/>
  <text x="624" y="344" fill="#A8B8D2" font-family="Arial, sans-serif" font-size="13" font-weight="700">APROVAÇÃO</text>
  <text x="624" y="392" fill="#F7FAFF" font-family="Arial, sans-serif" font-size="36" font-weight="700">100%</text>
  <text x="739" y="392" fill="#66D1A1" font-family="Arial, sans-serif" font-size="13">rastreável</text>
  <rect x="862" y="308" width="228" height="138" rx="16" fill="url(#accent)"/>
  <text x="890" y="344" fill="#FFF4EF" font-family="Arial, sans-serif" font-size="13" font-weight="700">EVIDÊNCIAS</text>
  <path d="M890 407L927 373L958 394L1004 349L1056 407" stroke="#FFF8F4" stroke-width="5" stroke-linecap="round" stroke-linejoin="round"/>
  <circle cx="890" cy="407" r="5" fill="#FFF8F4"/><circle cx="927" cy="373" r="5" fill="#FFF8F4"/><circle cx="958" cy="394" r="5" fill="#FFF8F4"/><circle cx="1004" cy="349" r="5" fill="#FFF8F4"/><circle cx="1056" cy="407" r="5" fill="#FFF8F4"/>
  <rect x="330" y="480" width="760" height="142" rx="16" fill="#121C30" stroke="#2D3C56"/>
  <text x="360" y="518" fill="#A8B8D2" font-family="Arial, sans-serif" font-size="13" font-weight="700" letter-spacing="1.3">CONTROLLED DELIVERY</text>
  <circle cx="370" cy="563" r="10" fill="#66D1A1"/>
  <path d="M365 563L369 567L377 557" stroke="#0D1424" stroke-width="3" stroke-linecap="round" stroke-linejoin="round"/>
  <text x="396" y="569" fill="#DEE7F5" font-family="Arial, sans-serif" font-size="15">Plano aprovado</text>
  <circle cx="604" cy="563" r="10" fill="#66D1A1"/>
  <path d="M599 563L603 567L611 557" stroke="#0D1424" stroke-width="3" stroke-linecap="round" stroke-linejoin="round"/>
  <text x="630" y="569" fill="#DEE7F5" font-family="Arial, sans-serif" font-size="15">Testes registrados</text>
  <circle cx="843" cy="563" r="10" fill="#66D1A1"/>
  <path d="M838 563L842 567L850 557" stroke="#0D1424" stroke-width="3" stroke-linecap="round" stroke-linejoin="round"/>
  <text x="869" y="569" fill="#DEE7F5" font-family="Arial, sans-serif" font-size="15">Entrega local</text>
</svg>
