<svg width="1200" height="800" viewBox="0 0 1200 800" fill="none" xmlns="http://www.w3.org/2000/svg">
  <defs>
    <linearGradient id="cp-bg" x1="70" y1="-10" x2="1140" y2="780" gradientUnits="userSpaceOnUse">
      <stop offset="0" stop-color="#0B1A25" />
      <stop offset="0.55" stop-color="#111827" />
      <stop offset="1" stop-color="#16A34A" />
    </linearGradient>
    <radialGradient id="cp-glow-a" cx="0" cy="0" r="1" gradientUnits="userSpaceOnUse" gradientTransform="translate(1010 130) rotate(131.2) scale(330 250)">
      <stop stop-color="#86EFAC" stop-opacity="0.38" />
      <stop offset="1" stop-color="#86EFAC" stop-opacity="0" />
    </radialGradient>
    <radialGradient id="cp-glow-b" cx="0" cy="0" r="1" gradientUnits="userSpaceOnUse" gradientTransform="translate(180 748) rotate(-64.7) scale(290 225)">
      <stop stop-color="#22C55E" stop-opacity="0.24" />
      <stop offset="1" stop-color="#22C55E" stop-opacity="0" />
    </radialGradient>
    <pattern id="cp-grid" width="48" height="48" patternUnits="userSpaceOnUse">
      <path d="M48 0H0V48" stroke="#334155" stroke-opacity="0.38" />
    </pattern>
    <filter id="cp-shadow" x="0" y="0" width="1200" height="800" filterUnits="userSpaceOnUse">
      <feDropShadow dx="0" dy="24" stdDeviation="24" flood-color="#020617" flood-opacity="0.55" />
    </filter>
    <linearGradient id="cp-panel" x1="120" y1="94" x2="1050" y2="732" gradientUnits="userSpaceOnUse">
      <stop stop-color="#0A1324" stop-opacity="0.95" />
      <stop offset="1" stop-color="#112037" stop-opacity="0.9" />
    </linearGradient>
    <linearGradient id="cp-revenue" x1="618" y1="447" x2="900" y2="447" gradientUnits="userSpaceOnUse">
      <stop stop-color="#22C55E" />
      <stop offset="1" stop-color="#4ADE80" />
    </linearGradient>
    <linearGradient id="cp-cost" x1="618" y1="499" x2="850" y2="499" gradientUnits="userSpaceOnUse">
      <stop stop-color="#34D399" stop-opacity="0.95" />
      <stop offset="1" stop-color="#4ADE80" stop-opacity="0.58" />
    </linearGradient>
  </defs>

  <rect width="1200" height="800" fill="url(#cp-bg)" />
  <rect width="1200" height="800" fill="url(#cp-grid)" opacity="0.2" />
  <circle cx="1010" cy="130" r="246" fill="url(#cp-glow-a)" />
  <circle cx="180" cy="748" r="220" fill="url(#cp-glow-b)" />

  <g filter="url(#cp-shadow)">
    <rect x="96" y="92" width="1008" height="616" rx="42" fill="url(#cp-panel)" stroke="#334155" stroke-opacity="0.7" stroke-width="2" />
    <rect x="96" y="92" width="1008" height="56" rx="42" fill="#091528" fill-opacity="0.9" />
    <circle cx="138" cy="121" r="7" fill="#FB7185" fill-opacity="0.9" />
    <circle cx="164" cy="121" r="7" fill="#FACC15" fill-opacity="0.9" />
    <circle cx="190" cy="121" r="7" fill="#34D399" fill-opacity="0.9" />
  </g>

  <rect x="168" y="180" width="396" height="436" rx="30" fill="#0D1A2F" stroke="#334155" stroke-opacity="0.68" />
  <text x="204" y="222" fill="#F8FAFC" font-size="24" font-weight="600" font-family="Segoe UI, Arial, sans-serif">Projetos ativos</text>
  <rect x="204" y="240" width="198" height="10" rx="5" fill="#64748B" fill-opacity="0.45" />

  <rect x="204" y="272" width="324" height="96" rx="22" fill="#11203A" stroke="#334155" />
  <text x="228" y="302" fill="#E2E8F0" font-size="16" font-weight="600" font-family="Segoe UI, Arial, sans-serif">Landing de Vendas</text>
  <rect x="228" y="316" width="178" height="9" rx="4.5" fill="#94A3B8" fill-opacity="0.45" />
  <rect x="228" y="334" width="134" height="9" rx="4.5" fill="#94A3B8" fill-opacity="0.45" />
  <rect x="412" y="302" width="92" height="24" rx="12" fill="#22C55E" fill-opacity="0.24" />
  <text x="430" y="318" fill="#BBF7D0" font-size="13" font-weight="700" font-family="Segoe UI, Arial, sans-serif">+12%</text>

  <rect x="204" y="382" width="324" height="96" rx="22" fill="#11203A" stroke="#334155" />
  <text x="228" y="412" fill="#E2E8F0" font-size="16" font-weight="600" font-family="Segoe UI, Arial, sans-serif">Plataforma interna</text>
  <rect x="228" y="426" width="192" height="9" rx="4.5" fill="#94A3B8" fill-opacity="0.45" />
  <rect x="228" y="444" width="156" height="9" rx="4.5" fill="#94A3B8" fill-opacity="0.45" />
  <rect x="412" y="412" width="92" height="24" rx="12" fill="#4ADE80" fill-opacity="0.2" />
  <text x="432" y="428" fill="#DCFCE7" font-size="13" font-weight="700" font-family="Segoe UI, Arial, sans-serif">+8%</text>

  <rect x="204" y="492" width="324" height="104" rx="22" fill="#11203A" stroke="#334155" />
  <text x="228" y="522" fill="#E2E8F0" font-size="16" font-weight="600" font-family="Segoe UI, Arial, sans-serif">Fase de prototipo</text>
  <rect x="228" y="536" width="218" height="9" rx="4.5" fill="#94A3B8" fill-opacity="0.45" />
  <rect x="228" y="554" width="144" height="9" rx="4.5" fill="#94A3B8" fill-opacity="0.45" />
  <rect x="412" y="520" width="92" height="24" rx="12" fill="#4ADE80" fill-opacity="0.2" />
  <text x="430" y="536" fill="#DCFCE7" font-size="13" font-weight="700" font-family="Segoe UI, Arial, sans-serif">+5%</text>

  <rect x="602" y="180" width="414" height="206" rx="30" fill="#0D1A2F" stroke="#334155" stroke-opacity="0.68" />
  <text x="638" y="222" fill="#F8FAFC" font-size="24" font-weight="600" font-family="Segoe UI, Arial, sans-serif">Resumo financeiro</text>
  <rect x="638" y="240" width="228" height="10" rx="5" fill="#64748B" fill-opacity="0.45" />
  <rect x="638" y="272" width="282" height="18" rx="9" fill="url(#cp-revenue)" />
  <text x="638" y="287" fill="#DCFCE7" font-size="15" font-weight="600" font-family="Segoe UI, Arial, sans-serif">Receita</text>
  <rect x="638" y="324" width="232" height="18" rx="9" fill="url(#cp-cost)" />
  <text x="638" y="339" fill="#BBF7D0" font-size="15" font-weight="600" font-family="Segoe UI, Arial, sans-serif">Custo</text>
  <circle cx="942" cy="306" r="52" stroke="#1E293B" stroke-width="12" />
  <path d="M942 254A52 52 0 0 1 986 332" stroke="#22C55E" stroke-width="12" stroke-linecap="round" />
  <text x="922" y="314" fill="#BBF7D0" font-size="20" font-weight="700" font-family="Segoe UI, Arial, sans-serif">63%</text>

  <rect x="602" y="408" width="414" height="208" rx="30" fill="#0D1A2F" stroke="#334155" stroke-opacity="0.68" />
  <text x="638" y="450" fill="#F8FAFC" font-size="24" font-weight="600" font-family="Segoe UI, Arial, sans-serif">Evolucao mensal</text>
  <rect x="638" y="468" width="206" height="10" rx="5" fill="#64748B" fill-opacity="0.45" />

  <rect x="654" y="556" width="30" height="34" rx="8" fill="#22C55E" fill-opacity="0.5" />
  <rect x="698" y="522" width="30" height="68" rx="8" fill="#22C55E" fill-opacity="0.62" />
  <rect x="742" y="490" width="30" height="100" rx="8" fill="#22C55E" fill-opacity="0.75" />
  <rect x="786" y="506" width="30" height="84" rx="8" fill="#22C55E" fill-opacity="0.66" />
  <rect x="830" y="468" width="30" height="122" rx="8" fill="#22C55E" fill-opacity="0.82" />
  <rect x="874" y="530" width="30" height="60" rx="8" fill="#22C55E" fill-opacity="0.55" />
  <rect x="918" y="500" width="30" height="90" rx="8" fill="#22C55E" fill-opacity="0.74" />

  <text x="166" y="672" fill="#F8FAFC" font-size="44" font-weight="700" font-family="Segoe UI, Arial, sans-serif">Costs Project Manager</text>
  <text x="166" y="704" fill="#BBF7D0" font-size="19" font-weight="500" font-family="Segoe UI, Arial, sans-serif">Budget visibility for project planning decisions</text>
</svg>
