<svg width="1200" height="800" viewBox="0 0 1200 800" fill="none" xmlns="http://www.w3.org/2000/svg">
  <defs>
    <linearGradient id="fastbite-bg" x1="0" y1="0" x2="1" y2="1">
      <stop offset="0%" stop-color="#0b1120" />
      <stop offset="60%" stop-color="#111827" />
      <stop offset="100%" stop-color="#f59e0b" />
    </linearGradient>
    <radialGradient id="fastbite-glow" cx="0" cy="0" r="1" gradientUnits="userSpaceOnUse" gradientTransform="translate(920 240) rotate(135) scale(260 200)">
      <stop stop-color="#fbbf24" stop-opacity="0.45" />
      <stop offset="1" stop-color="#fbbf24" stop-opacity="0" />
    </radialGradient>
    <pattern id="fastbite-grid" width="80" height="80" patternUnits="userSpaceOnUse">
      <path d="M80 0H0V80" stroke="#1f2937" stroke-width="1" opacity="0.35" />
    </pattern>
    <filter id="fastbite-blur" x="-200" y="-200" width="1600" height="1200" filterUnits="userSpaceOnUse">
      <feGaussianBlur stdDeviation="60" />
    </filter>
  </defs>
  <rect width="1200" height="800" fill="url(#fastbite-bg)" />
  <rect width="1200" height="800" fill="url(#fastbite-grid)" opacity="0.35" />
  <circle cx="920" cy="220" r="180" fill="url(#fastbite-glow)" />
  <circle cx="260" cy="640" r="180" fill="#f59e0b" opacity="0.12" filter="url(#fastbite-blur)" />

  <rect x="120" y="120" width="960" height="560" rx="48" fill="#0b1220" fill-opacity="0.78" stroke="#1f2937" stroke-width="2" />
  <rect x="200" y="200" width="520" height="140" rx="28" fill="#101826" stroke="#283548" stroke-width="1.5" />
  <rect x="220" y="230" width="180" height="28" rx="14" fill="#f59e0b" fill-opacity="0.9" />
  <rect x="220" y="270" width="420" height="16" rx="8" fill="#e2e8f0" fill-opacity="0.7" />
  <rect x="220" y="298" width="360" height="12" rx="6" fill="#94a3b8" fill-opacity="0.6" />

  <rect x="200" y="380" width="380" height="200" rx="28" fill="#0f172a" stroke="#283548" stroke-width="1.5" />
  <rect x="220" y="410" width="220" height="20" rx="10" fill="#e2e8f0" fill-opacity="0.65" />
  <rect x="220" y="445" width="280" height="14" rx="7" fill="#94a3b8" fill-opacity="0.55" />
  <rect x="220" y="490" width="160" height="44" rx="22" fill="#f59e0b" />
  <text x="260" y="520" fill="#0b1120" font-size="20" font-family="Arial" font-weight="700">Order</text>

  <rect x="640" y="380" width="360" height="200" rx="28" fill="#0f172a" stroke="#283548" stroke-width="1.5" />
  <circle cx="740" cy="465" r="54" fill="#f59e0b" fill-opacity="0.25" />
  <path d="M720 465h40" stroke="#f8fafc" stroke-width="8" stroke-linecap="round" />
  <path d="M740 445v40" stroke="#f8fafc" stroke-width="8" stroke-linecap="round" />
  <rect x="820" y="430" width="140" height="16" rx="8" fill="#e2e8f0" fill-opacity="0.6" />
  <rect x="820" y="460" width="110" height="12" rx="6" fill="#94a3b8" fill-opacity="0.55" />

  <text x="200" y="660" fill="#f8fafc" font-size="46" font-family="Arial" font-weight="700">FastBite</text>
  <text x="200" y="700" fill="#fde68a" font-size="20" font-family="Arial">Python + Web ordering</text>
</svg>
