<svg width="1200" height="800" viewBox="0 0 1200 800" fill="none" xmlns="http://www.w3.org/2000/svg">
  <defs>
    <linearGradient id="maui-bg" x1="0" y1="0" x2="1" y2="1">
      <stop offset="0%" stop-color="#0b1120" />
      <stop offset="55%" stop-color="#111827" />
      <stop offset="100%" stop-color="#22d3ee" />
    </linearGradient>
    <radialGradient id="maui-glow" cx="0" cy="0" r="1" gradientUnits="userSpaceOnUse" gradientTransform="translate(900 200) rotate(135) scale(260 200)">
      <stop stop-color="#22d3ee" stop-opacity="0.45" />
      <stop offset="1" stop-color="#22d3ee" stop-opacity="0" />
    </radialGradient>
    <pattern id="maui-grid" width="90" height="90" patternUnits="userSpaceOnUse">
      <path d="M90 0H0V90" stroke="#1f2937" stroke-width="1" opacity="0.35" />
    </pattern>
    <filter id="maui-blur" x="-200" y="-200" width="1600" height="1200" filterUnits="userSpaceOnUse">
      <feGaussianBlur stdDeviation="60" />
    </filter>
  </defs>
  <rect width="1200" height="800" fill="url(#maui-bg)" />
  <rect width="1200" height="800" fill="url(#maui-grid)" opacity="0.3" />
  <circle cx="900" cy="200" r="180" fill="url(#maui-glow)" />
  <circle cx="300" cy="650" r="180" fill="#22d3ee" opacity="0.12" filter="url(#maui-blur)" />

  <rect x="140" y="120" width="920" height="560" rx="52" fill="#0b1220" fill-opacity="0.78" stroke="#1f2937" stroke-width="2" />
  <rect x="260" y="180" width="300" height="460" rx="36" fill="#0f172a" stroke="#334155" stroke-width="1.5" />
  <rect x="290" y="220" width="240" height="30" rx="15" fill="#22d3ee" fill-opacity="0.5" />
  <rect x="290" y="270" width="210" height="14" rx="7" fill="#e2e8f0" fill-opacity="0.6" />
  <rect x="290" y="300" width="190" height="12" rx="6" fill="#94a3b8" fill-opacity="0.55" />
  <rect x="290" y="345" width="220" height="140" rx="22" fill="#22d3ee" fill-opacity="0.16" />
  <rect x="290" y="505" width="160" height="36" rx="18" fill="#22d3ee" />

  <rect x="620" y="220" width="360" height="90" rx="22" fill="#0f172a" stroke="#334155" stroke-width="1.5" />
  <rect x="650" y="250" width="180" height="16" rx="8" fill="#e2e8f0" fill-opacity="0.7" />
  <rect x="650" y="275" width="120" height="12" rx="6" fill="#94a3b8" fill-opacity="0.55" />

  <rect x="620" y="340" width="360" height="300" rx="22" fill="#0f172a" stroke="#334155" stroke-width="1.5" />
  <rect x="650" y="380" width="280" height="18" rx="9" fill="#e2e8f0" fill-opacity="0.7" />
  <rect x="650" y="415" width="240" height="14" rx="7" fill="#94a3b8" fill-opacity="0.55" />
  <rect x="650" y="470" width="260" height="12" rx="6" fill="#94a3b8" fill-opacity="0.45" />
  <rect x="650" y="500" width="200" height="12" rx="6" fill="#94a3b8" fill-opacity="0.45" />

  <text x="200" y="660" fill="#f8fafc" font-size="44" font-family="Arial" font-weight="700">App Controle Financeiro</text>
  <text x="200" y="700" fill="#bae6fd" font-size="20" font-family="Arial">.NET MAUI multiplataforma</text>
</svg>
