<svg width="1200" height="800" viewBox="0 0 1200 800" fill="none" xmlns="http://www.w3.org/2000/svg">
  <defs>
    <linearGradient id="mf-bg" x1="110" y1="-20" x2="1140" y2="780" gradientUnits="userSpaceOnUse">
      <stop offset="0" stop-color="#0B172B" />
      <stop offset="0.55" stop-color="#111827" />
      <stop offset="1" stop-color="#0EA5E9" />
    </linearGradient>
    <radialGradient id="mf-glow-a" cx="0" cy="0" r="1" gradientUnits="userSpaceOnUse" gradientTransform="translate(1000 120) rotate(131.62) scale(340 250)">
      <stop stop-color="#67E8F9" stop-opacity="0.42" />
      <stop offset="1" stop-color="#67E8F9" stop-opacity="0" />
    </radialGradient>
    <radialGradient id="mf-glow-b" cx="0" cy="0" r="1" gradientUnits="userSpaceOnUse" gradientTransform="translate(170 750) rotate(-62.16) scale(290 230)">
      <stop stop-color="#22D3EE" stop-opacity="0.2" />
      <stop offset="1" stop-color="#22D3EE" stop-opacity="0" />
    </radialGradient>
    <pattern id="mf-grid" width="50" height="50" patternUnits="userSpaceOnUse">
      <path d="M50 0H0V50" stroke="#334155" stroke-opacity="0.38" />
    </pattern>
    <filter id="mf-shadow" x="0" y="0" width="1200" height="800" filterUnits="userSpaceOnUse">
      <feDropShadow dx="0" dy="24" stdDeviation="24" flood-color="#020617" flood-opacity="0.55" />
    </filter>
    <linearGradient id="mf-panel" x1="130" y1="100" x2="1040" y2="720" gradientUnits="userSpaceOnUse">
      <stop stop-color="#0A1324" stop-opacity="0.95" />
      <stop offset="1" stop-color="#122037" stop-opacity="0.86" />
    </linearGradient>
    <linearGradient id="mf-income" x1="700" y1="477" x2="960" y2="477" gradientUnits="userSpaceOnUse">
      <stop stop-color="#22D3EE" />
      <stop offset="1" stop-color="#0EA5E9" />
    </linearGradient>
    <linearGradient id="mf-expense" x1="700" y1="531" x2="910" y2="531" gradientUnits="userSpaceOnUse">
      <stop stop-color="#38BDF8" stop-opacity="0.9" />
      <stop offset="1" stop-color="#60A5FA" stop-opacity="0.58" />
    </linearGradient>
  </defs>

  <rect width="1200" height="800" fill="url(#mf-bg)" />
  <rect width="1200" height="800" fill="url(#mf-grid)" opacity="0.2" />
  <circle cx="1000" cy="120" r="246" fill="url(#mf-glow-a)" />
  <circle cx="170" cy="750" r="220" fill="url(#mf-glow-b)" />

  <g filter="url(#mf-shadow)">
    <rect x="96" y="92" width="1008" height="616" rx="42" fill="url(#mf-panel)" stroke="#334155" stroke-opacity="0.7" stroke-width="2" />
    <rect x="96" y="92" width="1008" height="56" rx="42" fill="#0A1528" fill-opacity="0.9" />
    <circle cx="138" cy="121" r="7" fill="#FB7185" fill-opacity="0.9" />
    <circle cx="164" cy="121" r="7" fill="#FACC15" fill-opacity="0.9" />
    <circle cx="190" cy="121" r="7" fill="#34D399" fill-opacity="0.9" />
  </g>

  <rect x="168" y="178" width="356" height="438" rx="42" fill="#0D182D" stroke="#334155" stroke-opacity="0.68" />
  <rect x="219" y="204" width="252" height="390" rx="30" fill="#111D33" stroke="#475569" stroke-opacity="0.6" />
  <rect x="289" y="218" width="114" height="8" rx="4" fill="#475569" />
  <circle cx="253" cy="218" r="4" fill="#475569" />
  <rect x="243" y="256" width="170" height="22" rx="11" fill="#22D3EE" fill-opacity="0.28" />
  <text x="257" y="271" fill="#E0F2FE" font-size="13" font-weight="600" font-family="Segoe UI, Arial, sans-serif">Saldo Total</text>
  <text x="243" y="316" fill="#F8FAFC" font-size="34" font-weight="700" font-family="Segoe UI, Arial, sans-serif">R$ 24.580</text>
  <rect x="243" y="332" width="178" height="10" rx="5" fill="#7DD3FC" fill-opacity="0.55" />

  <rect x="243" y="368" width="204" height="78" rx="20" fill="#0F2039" stroke="#334155" />
  <text x="262" y="396" fill="#E2E8F0" font-size="14" font-weight="600" font-family="Segoe UI, Arial, sans-serif">Meta mensal</text>
  <rect x="262" y="408" width="165" height="10" rx="5" fill="#334155" />
  <rect x="262" y="408" width="132" height="10" rx="5" fill="#38BDF8" />

  <rect x="243" y="462" width="204" height="96" rx="20" fill="#0F2039" stroke="#334155" />
  <path d="M262 530L288 497L316 515L343 474L370 491L398 460L428 482" stroke="#22D3EE" stroke-width="5" stroke-linecap="round" stroke-linejoin="round" />
  <circle cx="428" cy="482" r="5" fill="#67E8F9" />

  <rect x="578" y="178" width="454" height="198" rx="30" fill="#0D182D" stroke="#334155" stroke-opacity="0.68" />
  <text x="616" y="221" fill="#F8FAFC" font-size="25" font-weight="600" font-family="Segoe UI, Arial, sans-serif">Visao consolidada</text>
  <rect x="616" y="241" width="260" height="10" rx="5" fill="#64748B" fill-opacity="0.45" />
  <rect x="616" y="274" width="180" height="12" rx="6" fill="#22D3EE" fill-opacity="0.75" />
  <rect x="616" y="297" width="240" height="12" rx="6" fill="#94A3B8" fill-opacity="0.46" />
  <rect x="616" y="320" width="208" height="12" rx="6" fill="#94A3B8" fill-opacity="0.42" />
  <circle cx="930" cy="287" r="52" stroke="#1E293B" stroke-width="12" />
  <path d="M930 235A52 52 0 0 1 979 299" stroke="#22D3EE" stroke-width="12" stroke-linecap="round" />
  <text x="910" y="295" fill="#BAE6FD" font-size="20" font-weight="700" font-family="Segoe UI, Arial, sans-serif">74%</text>

  <rect x="578" y="398" width="454" height="218" rx="30" fill="#0D182D" stroke="#334155" stroke-opacity="0.68" />
  <text x="616" y="441" fill="#F8FAFC" font-size="24" font-weight="600" font-family="Segoe UI, Arial, sans-serif">Entradas vs Saidas</text>
  <rect x="616" y="459" width="260" height="10" rx="5" fill="#64748B" fill-opacity="0.45" />
  <rect x="700" y="468" width="260" height="18" rx="9" fill="url(#mf-income)" />
  <text x="616" y="483" fill="#BAE6FD" font-size="15" font-weight="600" font-family="Segoe UI, Arial, sans-serif">Entradas</text>
  <rect x="700" y="522" width="210" height="18" rx="9" fill="url(#mf-expense)" />
  <text x="616" y="537" fill="#BFDBFE" font-size="15" font-weight="600" font-family="Segoe UI, Arial, sans-serif">Saidas</text>
  <rect x="616" y="566" width="344" height="10" rx="5" fill="#94A3B8" fill-opacity="0.34" />

  <text x="166" y="672" fill="#F8FAFC" font-size="42" font-weight="700" font-family="Segoe UI, Arial, sans-serif">App Controle Financeiro</text>
  <text x="166" y="704" fill="#BAE6FD" font-size="19" font-weight="500" font-family="Segoe UI, Arial, sans-serif">Cross-platform experience with .NET MAUI</text>
</svg>
