<svg width="1200" height="800" viewBox="0 0 1200 800" fill="none" xmlns="http://www.w3.org/2000/svg">
  <defs>
    <linearGradient id="sos-bg" x1="0" y1="0" x2="1200" y2="800" gradientUnits="userSpaceOnUse">
      <stop stop-color="#052E16" />
      <stop offset="0.55" stop-color="#115E59" />
      <stop offset="1" stop-color="#0F766E" />
    </linearGradient>
    <pattern id="sos-grid" width="48" height="48" patternUnits="userSpaceOnUse">
      <path d="M48 0H0V48" stroke="#D1FAE5" stroke-opacity="0.12" />
    </pattern>
    <linearGradient id="sos-panel" x1="120" y1="110" x2="1080" y2="690" gradientUnits="userSpaceOnUse">
      <stop stop-color="#06281A" />
      <stop offset="1" stop-color="#0A3A35" />
    </linearGradient>
  </defs>

  <rect width="1200" height="800" fill="url(#sos-bg)" />
  <rect width="1200" height="800" fill="url(#sos-grid)" />

  <rect x="110" y="100" width="980" height="600" rx="36" fill="url(#sos-panel)" stroke="#6EE7B7" stroke-opacity="0.35" stroke-width="2" />

  <rect x="160" y="170" width="650" height="460" rx="24" fill="#022C22" stroke="#34D399" stroke-opacity="0.3" />
  <rect x="845" y="170" width="290" height="210" rx="20" fill="#064E3B" stroke="#A7F3D0" stroke-opacity="0.4" />
  <rect x="845" y="420" width="290" height="210" rx="20" fill="#064E3B" stroke="#A7F3D0" stroke-opacity="0.4" />

  <path d="M230 260L330 220L420 250L520 210L620 270L700 240L740 310L680 380L590 420L500 390L410 440L320 410L260 330L230 260Z" fill="#065F46" stroke="#6EE7B7" stroke-opacity="0.8" stroke-width="3" />

  <g fill="#F43F5E">
    <circle cx="330" cy="310" r="13" />
    <circle cx="500" cy="290" r="13" />
    <circle cx="610" cy="340" r="13" />
    <circle cx="430" cy="370" r="13" />
    <circle cx="560" cy="250" r="13" />
  </g>

  <g stroke="#F43F5E" stroke-width="3" stroke-linecap="round">
    <path d="M330 340V368" />
    <path d="M500 320V348" />
    <path d="M610 370V398" />
    <path d="M430 400V428" />
    <path d="M560 280V308" />
  </g>

  <text x="870" y="235" fill="#ECFDF5" font-size="26" font-family="Arial" font-weight="700">Portal publico</text>
  <text x="870" y="270" fill="#D1FAE5" font-size="18" font-family="Arial">Abrigos e pontos de doacao</text>
  <text x="870" y="305" fill="#D1FAE5" font-size="18" font-family="Arial">Consulta de vagas e necessidades</text>

  <text x="870" y="485" fill="#ECFDF5" font-size="26" font-family="Arial" font-weight="700">Painel restrito</text>
  <text x="870" y="520" fill="#D1FAE5" font-size="18" font-family="Arial">Atualizacao por equipes autorizadas</text>
  <text x="870" y="555" fill="#D1FAE5" font-size="18" font-family="Arial">NextAuth + Prisma + Postgres</text>

  <rect x="160" y="118" width="310" height="38" rx="12" fill="#022C22" stroke="#6EE7B7" stroke-opacity="0.45" />
  <text x="182" y="143" fill="#ECFDF5" font-size="24" font-family="Arial" font-weight="700">SOS MG</text>

  <text x="160" y="678" fill="#A7F3D0" font-size="20" font-family="Arial">Resposta digital para chuvas fortes em Minas Gerais</text>
</svg>
